HIERARCHY
ROOT Pelvis
{
	OFFSET 0.000000 0.000000 0.000000
	CHANNELS 6 Xposition Yposition Zposition Zrotation Yrotation Xrotation 
	JOINT Left_hip
	{
		OFFSET 0.070241 -0.085575 -0.010474
		CHANNELS 3 Zrotation Yrotation Xrotation
		JOINT Left_knee
		{
			OFFSET 0.032125 -0.356873 -0.000555
			CHANNELS 3 Zrotation Yrotation Xrotation
			JOINT Left_ankle
			{
				OFFSET -0.010961 -0.370212 -0.042278
				CHANNELS 3 Zrotation Yrotation Xrotation
				JOINT Left_foot
				{
					OFFSET 0.023322 -0.052281 0.110104
					CHANNELS 3 Zrotation Yrotation Xrotation
					End Site
					{
						OFFSET 0.000000 0.000000 0.000000
					}
				}
			}
		}
	}
	JOINT Right_hip
	{
		OFFSET -0.068518 -0.084320 -0.007402
		CHANNELS 3 Zrotation Yrotation Xrotation
		JOINT Right_knee
		{
			OFFSET -0.037345 -0.364815 -0.003619
			CHANNELS 3 Zrotation Yrotation Xrotation
			JOINT Right_ankle
			{
				OFFSET 0.013394 -0.370006 -0.039954
				CHANNELS 3 Zrotation Yrotation Xrotation
				JOINT Right_foot
				{
					OFFSET -0.019600 -0.045455 0.113223
					CHANNELS 3 Zrotation Yrotation Xrotation
					End Site
					{
						OFFSET 0.000000 0.000000 0.000000
					}
				}
			}
		}
	}
	JOINT Spine1
	{
		OFFSET -0.002404 0.098129 -0.018169
		CHANNELS 3 Zrotation Yrotation Xrotation
		JOINT Spine2
		{
			OFFSET 0.003989 0.127209 -0.001742
			CHANNELS 3 Zrotation Yrotation Xrotation
			JOINT Spine3
			{
				OFFSET 0.001758 0.046641 0.023475
				CHANNELS 3 Zrotation Yrotation Xrotation
				JOINT Neck
				{
					OFFSET -0.003759 0.194901 -0.039982
					CHANNELS 3 Zrotation Yrotation Xrotation
					JOINT Head
					{
						OFFSET 0.003999 0.063756 0.047665
						CHANNELS 3 Zrotation Yrotation Xrotation
						End Site
						{
							OFFSET 0.000000 0.000000 0.000000
						}
					}
				}
				JOINT Left_collar
				{
					OFFSET 0.071816 0.109048 -0.028973
					CHANNELS 3 Zrotation Yrotation Xrotation
					JOINT Left_shoulder
					{
						OFFSET 0.084027 0.032269 -0.006525
						CHANNELS 3 Zrotation Yrotation Xrotation
						JOINT Left_elbow
						{
							OFFSET 0.243854 -0.013992 -0.025905
							CHANNELS 3 Zrotation Yrotation Xrotation
							JOINT Left_wrist
							{
								OFFSET 0.232156 0.008196 -0.000339
								CHANNELS 3 Zrotation Yrotation Xrotation
								JOINT Left_palm
								{
									OFFSET 0.075377 -0.009461 -0.012494
									CHANNELS 3 Zrotation Yrotation Xrotation
									End Site
									{
										OFFSET 0.000000 0.000000 0.000000
									}
								}
							}
						}
					}
				}
				JOINT Right_collar
				{
					OFFSET -0.073768 0.107001 -0.033755
					CHANNELS 3 Zrotation Yrotation Xrotation
					JOINT Right_shoulder
					{
						OFFSET -0.086837 0.032868 -0.009431
						CHANNELS 3 Zrotation Yrotation Xrotation
						JOINT Right_elbow
						{
							OFFSET -0.236446 -0.012544 -0.018747
							CHANNELS 3 Zrotation Yrotation Xrotation
							JOINT Right_wrist
							{
								OFFSET -0.236110 0.006124 -0.004327
								CHANNELS 3 Zrotation Yrotation Xrotation
								JOINT Right_palm
								{
									OFFSET -0.074800 -0.006875 -0.009610
									CHANNELS 3 Zrotation Yrotation Xrotation
									End Site
									{
										OFFSET 0.000000 0.000000 0.000000
									}
								}
							}
						}
					}
				}
			}
		}
	}
}
MOTION
Frames: 8
Frame Time: 0.100000
-0.467138 0.041791 -0.334462 166.791336 39.358422 -14.229555 -0.139038 7.089034 -1.540983 -0.791129 -0.517925 -3.283199 6.992874 18.331983 1.789833 -4.955354 6.014981 -8.906431 -9.109908 -8.152089 -2.095096 -3.104260 -0.572183 11.114813 16.775001 -17.276239 4.032091 -8.890366 2.944883 -3.728625 -4.548469 4.748635 -0.093451 6.526243 -2.037578 -6.797234 4.168959 0.625703 6.057562 -3.860111 36.014081 -0.360374 0.587215 10.451938 -8.416660 15.586555 -1.590704 -10.372992 1.875121 -11.991800 -12.573709 3.849631 -3.835326 -0.749467 20.795225 -5.868334 21.429616 -12.685874 -9.525307 -21.724339 10.603216 4.669176 0.283713 55.751269 -8.628127 14.816642 136.079067 84.914396 151.199775 -29.743548 1.813377 -24.303685 21.258787 5.214716 -8.233032 
-0.469730 0.041451 -0.333582 165.908274 41.214350 -14.592950 -0.103269 6.608911 -1.975837 -0.844151 -1.245421 -3.024809 6.846985 17.821930 1.725680 -4.866195 6.224298 -8.874542 -9.051307 -8.317233 -1.611693 -3.166939 -1.147289 11.152370 16.718162 -17.672618 4.120504 -8.894107 2.818421 -3.616589 -4.852083 4.842193 -0.215466 6.798429 -2.217092 -6.583001 4.272637 0.448378 6.043677 -2.839884 35.454030 0.681463 1.382739 9.604171 -7.942348 15.549569 -1.199666 -10.440998 2.533958 -12.458549 -13.150441 4.256079 -4.453517 -0.928361 20.600001 -6.276443 22.035760 -12.729706 -9.387900 -21.529733 10.910195 4.343654 0.043489 56.002162 -8.653851 14.757234 143.401103 85.186971 158.975491 -29.741143 2.013844 -23.941185 21.073982 5.176592 -7.886754 
-0.471819 0.041193 -0.332940 165.543957 42.085710 -14.724543 -0.270291 6.365216 -2.313659 -0.835273 -1.503069 -2.622151 6.953570 17.488055 1.638526 -5.017936 6.400035 -8.919087 -9.302010 -8.552166 -1.806647 -3.072740 -1.343427 12.054058 16.786662 -17.618268 4.192796 -8.909050 2.639023 -3.648134 -4.843269 4.969181 -0.147116 6.891218 -2.099067 -6.191653 4.292054 0.491306 5.962650 -1.897922 35.207052 1.541512 1.610291 8.840489 -7.743467 15.528598 -0.884039 -10.504411 2.300848 -12.777068 -13.019655 4.397661 -3.838218 -0.436034 20.949925 -6.587287 23.671025 -12.742364 -9.504412 -22.088769 11.083176 4.328727 0.181911 56.518125 -8.670379 14.860657 146.660234 85.716036 162.288688 -30.038411 2.002583 -23.878554 20.971275 5.228404 -8.029625 
-0.473729 0.041537 -0.332175 165.566429 42.158052 -14.775997 -0.335364 6.574632 -1.994578 -0.907899 -1.532026 -2.699570 7.041787 17.278426 1.462224 -5.093880 6.791995 -8.788489 -9.400371 -8.488069 -1.694258 -3.145035 -1.550740 12.344526 16.335139 -17.275107 4.293071 -8.071480 2.043195 -3.578848 -4.825527 5.007870 -0.166238 6.884741 -2.010301 -5.208621 4.211066 0.532976 5.715488 -0.887170 35.381153 2.556010 1.563231 8.482523 -8.206603 14.968902 -0.710916 -10.709602 2.158817 -12.589195 -12.936857 4.477190 -3.417298 -1.644641 20.611974 -6.700085 24.288433 -12.691920 -9.338451 -22.398881 11.293707 4.503449 0.447249 56.401053 -8.432430 15.241532 146.360662 85.613379 161.806169 -29.866024 2.389571 -23.374854 20.727824 4.998525 -7.995432 
-0.473031 0.042226 -0.334336 165.404244 41.926556 -14.742998 -0.156424 6.549939 -3.108754 -1.064105 -1.453863 -1.162879 6.993504 17.710970 1.055914 -4.713477 6.720109 -8.903037 -8.875733 -8.390534 -2.466593 -3.375206 -1.548340 12.952206 16.314486 -17.620698 4.334280 -8.695994 2.191149 -3.933435 -4.914367 5.239652 1.207829 6.843854 -1.986384 -4.950996 4.333610 0.655326 5.956724 -1.237751 34.769398 1.865741 2.406853 8.991280 -8.786134 14.088429 -1.089836 -10.500141 1.772374 -12.326557 -12.942198 4.611173 -4.156863 -2.084733 21.175843 -6.235119 23.482747 -12.958182 -9.487054 -22.045572 11.751950 4.775401 0.576862 56.202961 -8.006625 14.777012 145.274709 85.840151 160.566529 -30.351580 2.198269 -22.601988 20.954019 5.070352 -7.746839 
-0.468905 0.043173 -0.342601 165.294744 41.323689 -14.119143 -0.111041 6.677399 -5.305146 -1.122981 -0.476106 0.518439 6.929208 17.392801 1.229815 -4.772909 7.268524 -9.525138 -8.633452 -8.259027 -4.442962 -3.273559 -1.603568 13.915887 16.406268 -17.144688 4.674540 -9.607937 1.728812 -4.309822 -4.520060 5.275011 3.267708 6.569559 -2.187186 -4.100465 4.420178 0.688594 5.852717 -0.812205 35.164728 2.782055 2.868359 9.350678 -9.515951 14.218474 -2.791925 -11.019029 0.605703 -13.704238 -13.502334 5.571366 -5.483033 -4.170500 20.767023 -5.853871 23.068864 -13.178477 -9.369356 -22.306891 10.667027 6.303010 1.146865 57.019290 -6.470361 14.816265 152.593482 86.240036 167.755431 -30.094079 2.323506 -21.993440 20.732831 5.054468 -7.876354 
-0.459637 0.045640 -0.357587 164.345085 42.809119 -13.293982 -0.047112 5.995700 -10.040593 -1.600481 -0.443273 3.779868 6.389060 17.158702 1.538387 -4.185408 7.135388 -10.239869 -8.289791 -8.500183 -7.588765 -3.140893 -1.907697 15.601560 17.763278 -18.029794 4.562261 -13.260605 2.049705 -5.490224 -4.150777 5.003377 7.676315 6.873647 -3.394346 -5.047928 5.220676 -0.015818 7.091406 -4.512529 34.436229 1.605962 3.715542 10.131754 -10.967095 16.950673 -7.436053 -10.634577 -0.041462 -16.616627 -15.174028 5.186188 -4.384846 -1.549931 22.210208 -5.129854 21.540499 -13.485417 -9.467762 -21.871543 8.654976 8.957302 0.866773 58.116314 -4.877226 13.474469 154.405762 85.569373 170.653171 -30.955517 2.009892 -21.532597 21.403689 5.217530 -8.236774 
-0.445703 0.052689 -0.379578 163.488085 44.399323 -11.709022 0.054442 5.074728 -17.928841 -2.726916 -0.072400 10.168890 5.599552 16.838323 1.756611 -3.334617 6.739448 -12.033611 -8.226596 -8.850276 -13.156272 -2.742100 -2.351510 19.197592 19.653287 -19.256407 3.627575 -19.011017 2.839372 -7.487477 -2.902251 4.810378 14.316326 6.847336 -4.564301 -5.989269 5.940264 -0.513574 8.266405 -10.399250 33.425318 -0.698572 4.182188 9.371383 -13.642499 21.302321 -12.808713 -11.151323 0.606001 -20.837038 -19.564666 6.410143 -4.481183 -2.292796 24.782825 -4.183244 19.748445 -13.972163 -9.781592 -21.986489 5.814324 12.992111 0.997700 60.829964 -2.996278 11.569384 171.779956 85.053018 -171.353727 -33.129008 1.511815 -20.916340 22.015501 5.776946 -8.737027 
